<?xml version="1.0" encoding="utf-8"?>
<!-- Generator: Adobe Illustrator 24.2.1, SVG Export Plug-In . SVG Version: 6.00 Build 0)  -->
<svg version="1.1" id="Ebene_1" xmlns="http://www.w3.org/2000/svg" xmlns:xlink="http://www.w3.org/1999/xlink" x="0px" y="0px"
	 viewBox="0 0 161.76 60" style="enable-background:new 0 0 161.76 60;" xml:space="preserve">
<style type="text/css">
	.st0{fill-rule:evenodd;clip-rule:evenodd;fill:#FBF315;stroke:#FBF315;stroke-width:0.1548;stroke-miterlimit:3.8637;}
	.st1{fill:#FBF315;}
</style>
<g>
	<path d="M70.9,36.48h-4.03l-3.06-4.79l-0.03,4.79h-3.24V24.02h4.84c1.31,0,2.36,0.32,3.15,0.95c0.79,0.63,1.18,1.59,1.18,2.88
		c0,0.89-0.24,1.66-0.72,2.31c-0.48,0.65-1.15,1.05-2.01,1.21L70.9,36.48z M63.77,29.61h0.31c0.66,0,1.2-0.1,1.62-0.31
		c0.42-0.21,0.63-0.62,0.63-1.24c0-0.61-0.21-1.02-0.62-1.23s-0.96-0.32-1.63-0.32h-0.31V29.61z"/>
	<path d="M80.89,36.48h-3.01v-0.94c-0.28,0.41-0.64,0.71-1.11,0.92c-0.46,0.2-0.96,0.31-1.49,0.31c-1.22,0-2.24-0.45-3.06-1.34
		c-0.82-0.89-1.22-1.95-1.22-3.18c0-1.24,0.4-2.3,1.19-3.18c0.79-0.88,1.81-1.32,3.06-1.32c0.52,0,1.01,0.09,1.47,0.27
		c0.46,0.18,0.85,0.45,1.16,0.82v-0.83h3.01V36.48z M74.12,32.25c0,0.56,0.17,1.02,0.51,1.37s0.82,0.53,1.42,0.53
		c0.59,0,1.07-0.18,1.41-0.54c0.35-0.36,0.52-0.81,0.52-1.36c0-0.55-0.17-1.01-0.51-1.37c-0.34-0.36-0.82-0.55-1.42-0.55
		c-0.59,0-1.07,0.18-1.41,0.55C74.29,31.26,74.12,31.71,74.12,32.25z"/>
	<path d="M86,24.75c0,0.46-0.17,0.86-0.5,1.19c-0.33,0.33-0.73,0.5-1.19,0.5s-0.86-0.16-1.19-0.5c-0.33-0.33-0.5-0.73-0.5-1.19
		c0-0.46,0.17-0.86,0.5-1.19c0.33-0.33,0.73-0.5,1.19-0.5s0.86,0.17,1.19,0.5C85.83,23.89,86,24.29,86,24.75z M85.82,36.48h-3.01
		v-8.48h3.01V36.48z"/>
	<path d="M91.02,36.48h-3.01v-6h-1.06v-2.48h1.06v-1.07c0-0.72,0.05-1.28,0.14-1.7c0.09-0.42,0.43-0.96,1.01-1.63
		c0.58-0.67,1.47-1,2.67-1c0.47,0,0.9,0.1,1.29,0.3v2.59c-0.22-0.1-0.41-0.17-0.55-0.21c-0.15-0.04-0.32-0.07-0.5-0.07
		c-0.38,0-0.64,0.11-0.8,0.34c-0.16,0.23-0.24,0.59-0.24,1.08v1.37h2.1v2.48h-2.1V36.48z"/>
	<path d="M97.35,36.48h-3.01v-6h-1.06v-2.48h1.06v-1.07c0-0.72,0.05-1.28,0.14-1.7c0.09-0.42,0.43-0.96,1.01-1.63
		c0.58-0.67,1.47-1,2.67-1c0.47,0,0.9,0.1,1.29,0.3v2.59c-0.22-0.1-0.41-0.17-0.55-0.21c-0.15-0.04-0.32-0.07-0.5-0.07
		c-0.38,0-0.64,0.11-0.8,0.34c-0.16,0.23-0.24,0.59-0.24,1.08v1.37h2.1v2.48h-2.1V36.48z"/>
	<path d="M109.08,32.73h-6.33c0,1.27,0.63,1.9,1.88,1.9c0.34,0,0.63-0.06,0.85-0.18c0.23-0.12,0.42-0.32,0.59-0.6h2.89
		c-0.23,0.95-0.75,1.67-1.55,2.17c-0.8,0.5-1.72,0.74-2.76,0.74c-1.45,0-2.64-0.4-3.54-1.19c-0.91-0.79-1.36-1.9-1.36-3.32
		c0-1.4,0.43-2.5,1.3-3.31c0.86-0.81,2-1.21,3.4-1.21c1.45,0,2.59,0.42,3.41,1.26c0.82,0.84,1.23,1.98,1.23,3.42V32.73z M106.29,31
		c-0.08-0.4-0.28-0.71-0.59-0.95s-0.69-0.35-1.11-0.35c-0.46,0-0.85,0.11-1.17,0.33c-0.32,0.22-0.52,0.54-0.61,0.97H106.29z"/>
	<path d="M113.56,24.75c0,0.46-0.17,0.86-0.5,1.19c-0.33,0.33-0.73,0.5-1.19,0.5s-0.86-0.16-1.19-0.5c-0.33-0.33-0.5-0.73-0.5-1.19
		c0-0.46,0.17-0.86,0.5-1.19c0.33-0.33,0.73-0.5,1.19-0.5s0.86,0.17,1.19,0.5C113.4,23.89,113.56,24.29,113.56,24.75z M113.38,36.48
		h-3.01v-8.48h3.01V36.48z"/>
	<path d="M120.88,30.19c-0.52-0.26-1.06-0.4-1.62-0.4c-0.23,0-0.45,0.05-0.64,0.14c-0.2,0.09-0.3,0.24-0.3,0.44
		c0,0.25,0.1,0.42,0.3,0.49s0.62,0.17,1.26,0.3c0.64,0.13,1.18,0.38,1.61,0.77c0.43,0.39,0.64,0.95,0.64,1.69
		c0,1.04-0.39,1.83-1.18,2.36c-0.79,0.53-1.73,0.79-2.82,0.79c-0.61,0-1.2-0.08-1.77-0.25s-1.12-0.41-1.65-0.73l1.09-2.1
		c0.33,0.23,0.72,0.43,1.17,0.6s0.85,0.26,1.21,0.26c0.22,0,0.43-0.05,0.64-0.17c0.2-0.11,0.31-0.27,0.31-0.48
		c0-0.29-0.19-0.49-0.58-0.63c-0.56-0.13-1.06-0.25-1.5-0.37s-0.83-0.33-1.17-0.65c-0.34-0.32-0.51-0.82-0.51-1.52
		c0-0.97,0.37-1.71,1.11-2.23c0.74-0.52,1.61-0.77,2.63-0.77c0.52,0,1,0.04,1.45,0.12c0.45,0.08,0.9,0.22,1.34,0.42L120.88,30.19z"
		/>
	<path d="M132.38,32.73h-6.33c0,1.27,0.63,1.9,1.88,1.9c0.34,0,0.63-0.06,0.85-0.18c0.23-0.12,0.42-0.32,0.59-0.6h2.89
		c-0.23,0.95-0.75,1.67-1.55,2.17c-0.8,0.5-1.72,0.74-2.76,0.74c-1.45,0-2.64-0.4-3.54-1.19c-0.91-0.79-1.36-1.9-1.36-3.32
		c0-1.4,0.43-2.5,1.3-3.31c0.86-0.81,2-1.21,3.4-1.21c1.45,0,2.59,0.42,3.41,1.26c0.82,0.84,1.23,1.98,1.23,3.42V32.73z M129.59,31
		c-0.08-0.4-0.28-0.71-0.59-0.95s-0.69-0.35-1.11-0.35c-0.46,0-0.85,0.11-1.17,0.33c-0.32,0.22-0.52,0.54-0.61,0.97H129.59z"/>
	<path d="M136.68,29.1c0.36-0.5,0.75-0.85,1.17-1.05c0.42-0.2,0.94-0.3,1.57-0.3c1.09,0,1.89,0.31,2.41,0.93
		c0.52,0.62,0.78,1.48,0.78,2.58v5.23h-3.01v-4.13v-0.38c0-0.55-0.08-1-0.26-1.34s-0.54-0.51-1.1-0.51c-0.57,0-0.98,0.18-1.21,0.54
		c-0.24,0.36-0.36,0.83-0.36,1.43v4.4h-3.01v-8.48h3.01V29.1z"/>
	<path d="M61.91,40.99h3.19l2.53,6.66l2.68-6.66h3.22l1.88,12.46h-3.24l-0.91-7.17l-3.02,7.17h-1.29l-2.86-7.17l-1.07,7.17h-3.22
		L61.91,40.99z"/>
	<path d="M85.34,49.7h-6.33c0,1.27,0.63,1.9,1.88,1.9c0.34,0,0.63-0.06,0.85-0.18c0.23-0.12,0.42-0.32,0.59-0.6h2.89
		c-0.23,0.95-0.75,1.67-1.55,2.17c-0.8,0.5-1.72,0.74-2.76,0.74c-1.45,0-2.64-0.4-3.54-1.19c-0.91-0.79-1.36-1.9-1.36-3.32
		c0-1.4,0.43-2.5,1.3-3.31c0.86-0.81,2-1.21,3.4-1.21c1.45,0,2.59,0.42,3.41,1.26c0.82,0.84,1.23,1.98,1.23,3.42V49.7z M82.55,47.97
		c-0.08-0.4-0.28-0.71-0.59-0.95s-0.69-0.35-1.11-0.35c-0.46,0-0.85,0.11-1.17,0.33c-0.32,0.22-0.52,0.54-0.61,0.97H82.55z"/>
	<path d="M89.82,41.72c0,0.46-0.17,0.86-0.5,1.19c-0.33,0.33-0.73,0.5-1.19,0.5s-0.86-0.17-1.19-0.5c-0.33-0.33-0.5-0.73-0.5-1.19
		s0.17-0.86,0.5-1.19c0.33-0.33,0.73-0.5,1.19-0.5s0.86,0.17,1.19,0.5C89.65,40.86,89.82,41.26,89.82,41.72z M89.63,53.45h-3.01
		v-8.48h3.01V53.45z"/>
	<path d="M94.54,46.07c0.36-0.5,0.75-0.85,1.17-1.05c0.42-0.2,0.94-0.3,1.57-0.3c1.09,0,1.89,0.31,2.41,0.93
		c0.52,0.62,0.78,1.48,0.78,2.58v5.23h-3.01v-4.13v-0.38c0-0.55-0.08-1-0.26-1.34s-0.54-0.51-1.1-0.51c-0.57,0-0.98,0.18-1.21,0.54
		c-0.24,0.36-0.36,0.83-0.36,1.43v4.4h-3.01v-8.48h3.01V46.07z"/>
	<path d="M111.08,49.7h-6.33c0,1.27,0.63,1.9,1.88,1.9c0.34,0,0.63-0.06,0.85-0.18c0.23-0.12,0.42-0.32,0.59-0.6h2.89
		c-0.23,0.95-0.75,1.67-1.55,2.17c-0.8,0.5-1.72,0.74-2.76,0.74c-1.45,0-2.64-0.4-3.54-1.19c-0.91-0.79-1.36-1.9-1.36-3.32
		c0-1.4,0.43-2.5,1.3-3.31c0.86-0.81,2-1.21,3.4-1.21c1.45,0,2.59,0.42,3.41,1.26c0.82,0.84,1.23,1.98,1.23,3.42V49.7z
		 M108.29,47.97c-0.08-0.4-0.28-0.71-0.59-0.95s-0.69-0.35-1.11-0.35c-0.46,0-0.85,0.11-1.17,0.33c-0.32,0.22-0.52,0.54-0.61,0.97
		H108.29z"/>
	<path d="M118.02,53.45V40.99h4.63c1.17,0,2.08,0.26,2.73,0.77s0.97,1.34,0.97,2.47c0,0.61-0.1,1.12-0.31,1.54
		c-0.21,0.42-0.56,0.75-1.06,1.01c0.86,0.13,1.5,0.47,1.92,1.02c0.42,0.55,0.63,1.28,0.63,2.18c0,1.21-0.43,2.09-1.28,2.64
		c-0.85,0.55-1.93,0.83-3.23,0.83H118.02z M121.26,45.89h0.36c0.53,0,0.95-0.08,1.27-0.24c0.32-0.16,0.48-0.48,0.48-0.97
		c0-0.51-0.17-0.83-0.51-0.98s-0.8-0.22-1.37-0.22h-0.23V45.89z M121.26,50.98h0.41c0.79,0,1.42-0.07,1.88-0.21
		c0.46-0.14,0.69-0.51,0.69-1.12c0-0.57-0.2-0.94-0.59-1.11c-0.39-0.17-0.92-0.25-1.59-0.25h-0.48h-0.33V50.98z"/>
	<path d="M138.33,53.45h-3.01v-0.94c-0.28,0.41-0.64,0.71-1.11,0.92c-0.46,0.2-0.96,0.31-1.49,0.31c-1.22,0-2.24-0.45-3.06-1.34
		c-0.82-0.89-1.22-1.95-1.22-3.18c0-1.24,0.4-2.3,1.19-3.18c0.79-0.88,1.81-1.32,3.06-1.32c0.52,0,1.01,0.09,1.47,0.27
		c0.46,0.18,0.85,0.45,1.16,0.82v-0.83h3.01V53.45z M131.56,49.22c0,0.56,0.17,1.02,0.51,1.37s0.82,0.53,1.42,0.53
		c0.59,0,1.07-0.18,1.41-0.54c0.35-0.36,0.52-0.81,0.52-1.36s-0.17-1.01-0.51-1.37c-0.34-0.36-0.82-0.55-1.42-0.55
		c-0.59,0-1.07,0.18-1.41,0.55C131.73,48.23,131.56,48.68,131.56,49.22z"/>
	<path d="M143.26,46.07c0.36-0.5,0.75-0.85,1.17-1.05c0.42-0.2,0.94-0.3,1.57-0.3c1.09,0,1.89,0.31,2.41,0.93
		c0.52,0.62,0.78,1.48,0.78,2.58v5.23h-3.01v-4.13v-0.38c0-0.55-0.08-1-0.26-1.34s-0.54-0.51-1.1-0.51c-0.57,0-0.98,0.18-1.21,0.54
		c-0.24,0.36-0.36,0.83-0.36,1.43v4.4h-3.01v-8.48h3.01V46.07z"/>
	<path d="M154.1,48.03l3.12-3.06h4.12l-4.25,3.92l4.51,4.56h-4.21L154.1,50v3.45h-3.01V39.74h3.01V48.03z"/>
</g>
<polygon class="st0" points="0.1,4.99 50.1,4.99 50.11,55 0.1,55 0.1,4.99 "/>
<polygon class="st1" points="1.55,6.44 48.66,6.44 48.66,53.55 1.55,53.55 1.55,6.44 "/>
<path d="M25.09,35.7l15.04,15.03l5.88-5.88L30.97,29.83l2.93-2.92l-0.02-5.88l2.1-2.1L36,23.78l2.03,2.03l7.35-7.35l1.97,1.97
	c0-1.26-0.36-5.63-3.85-9.04c-3.92-3.82-7.84-1.59-9.19-0.24l-7.1,7.1l1.77,1.77l-3.92,3.89l-3.91-3.9l1.77-1.76l-7.1-7.1
	c-1.35-1.35-5.27-3.58-9.19,0.24c-3.5,3.41-3.79,7.76-3.79,9.03l1.93-1.93l7.34,7.33l2.04-2.05v-4.84l2.1,2.1l0,5.84l2.94,2.93
	L4.28,44.7l5.91,5.9L25.09,35.7L25.09,35.7z"/>
<g>
</g>
<g>
</g>
<g>
</g>
<g>
</g>
<g>
</g>
<g>
</g>
</svg>
